<?xml version="1.0" encoding="UTF-8" standalone="no"?><!-- Generator: Gravit.io --><svg xmlns="http://www.w3.org/2000/svg" xmlns:xlink="http://www.w3.org/1999/xlink" style="isolation:isolate" viewBox="0 0 120 60" width="120pt" height="60pt"><defs><clipPath id="_clipPath_CAM9ONwp84m3TNMqIuMTff8zQ0Vw1p4I"><rect width="120" height="60"/></clipPath></defs><g clip-path="url(#_clipPath_CAM9ONwp84m3TNMqIuMTff8zQ0Vw1p4I)"><g><path d=" M 22.463 37.206 C 22.463 37.206 26.625 36.281 21.7 32.763 C 20.688 32.038 18.513 29.594 18.025 27.275 C 17.638 25.463 15.25 24.656 15.575 27.6 C 15.9 30.537 16.794 31.888 17.138 31.956 C 17.138 31.956 16.831 32.269 15.925 31.375 C 15.025 30.488 13.063 31.875 14.525 33.444 C 15.994 35.019 17.563 35.656 17.563 35.656 C 17.563 35.656 17.225 36 15.938 35.769 C 14.494 35.5 14.15 37.813 16.463 38.506 C 18.588 39.144 21.713 39.519 22.463 37.206 Z " fill-rule="evenodd" fill="rgb(209,243,250)"/><clipPath id="_clipPath_NSlCm7s1XyqMhekpIwUmHf3OX2vXKvdH"><path d=" M 22.463 37.206 C 22.463 37.206 26.625 36.281 21.7 32.763 C 20.688 32.038 18.513 29.594 18.025 27.275 C 17.638 25.463 15.25 24.656 15.575 27.6 C 15.9 30.537 16.794 31.888 17.138 31.956 C 17.138 31.956 16.831 32.269 15.925 31.375 C 15.025 30.488 13.063 31.875 14.525 33.444 C 15.994 35.019 17.563 35.656 17.563 35.656 C 17.563 35.656 17.225 36 15.938 35.769 C 14.494 35.5 14.15 37.813 16.463 38.506 C 18.588 39.144 21.713 39.519 22.463 37.206 Z " fill-rule="evenodd" fill="rgb(255,255,255)"/></clipPath><g clip-path="url(#_clipPath_NSlCm7s1XyqMhekpIwUmHf3OX2vXKvdH)"><g><path d=" M 22.038 37.531 C 22.038 37.531 26.2 36.606 21.275 33.088 C 20.263 32.362 18.088 29.912 17.6 27.6 C 17.213 25.787 14.825 24.981 15.144 27.925 C 15.469 30.862 16.369 32.206 16.713 32.275 C 16.713 32.275 16.406 32.587 15.5 31.7 C 14.6 30.806 12.638 32.2 14.1 33.769 C 15.569 35.344 17.138 35.975 17.138 35.975 C 17.138 35.975 16.8 36.325 15.513 36.087 C 14.069 35.825 13.725 38.137 16.038 38.831 C 18.163 39.469 21.288 39.844 22.038 37.531 Z " fill-rule="evenodd" fill="rgb(236,250,253)"/></g></g><path d=" M 45.713 37.206 C 45.713 37.206 41.513 36.281 46.319 32.763 C 47.306 32.038 49.388 29.594 49.8 27.275 C 50.125 25.463 52.488 24.656 52.263 27.6 C 52.044 30.537 51.188 31.888 50.85 31.956 C 50.85 31.956 51.163 32.269 52.038 31.375 C 52.913 30.488 54.919 31.875 53.513 33.444 C 52.106 35.019 50.556 35.656 50.556 35.656 C 50.556 35.656 50.9 36 52.181 35.769 C 53.619 35.5 54.044 37.813 51.756 38.506 C 49.656 39.144 46.538 39.519 45.713 37.206 Z " fill-rule="evenodd" fill="rgb(209,243,250)"/><clipPath id="_clipPath_RsXbOfVBHwOtF7oMgs40AyWjrCUxOeTL"><path d=" M 45.713 37.206 C 45.713 37.206 41.513 36.281 46.319 32.763 C 47.306 32.038 49.388 29.594 49.8 27.275 C 50.125 25.463 52.488 24.656 52.263 27.6 C 52.044 30.537 51.188 31.888 50.85 31.956 C 50.85 31.956 51.163 32.269 52.038 31.375 C 52.913 30.488 54.919 31.875 53.513 33.444 C 52.106 35.019 50.556 35.656 50.556 35.656 C 50.556 35.656 50.9 36 52.181 35.769 C 53.619 35.5 54.044 37.813 51.756 38.506 C 49.656 39.144 46.538 39.519 45.713 37.206 Z " fill-rule="evenodd" fill="rgb(255,255,255)"/></clipPath><g clip-path="url(#_clipPath_RsXbOfVBHwOtF7oMgs40AyWjrCUxOeTL)"><g><path d=" M 46.15 37.531 C 46.15 37.531 41.95 36.606 46.756 33.088 C 47.738 32.362 49.825 29.912 50.238 27.6 C 50.563 25.787 52.925 24.981 52.7 27.925 C 52.475 30.862 51.625 32.206 51.288 32.275 C 51.288 32.275 51.6 32.587 52.475 31.7 C 53.35 30.806 55.356 32.2 53.95 33.769 C 52.538 35.344 50.988 35.975 50.988 35.975 C 50.988 35.975 51.338 36.325 52.619 36.087 C 54.056 35.825 54.481 38.137 52.188 38.831 C 50.094 39.469 46.969 39.844 46.15 37.531 Z " fill-rule="evenodd" fill="rgb(236,250,253)"/></g></g><ellipse vector-effect="non-scaling-stroke" cx="34.00010830932786" cy="32.8375" rx="15.350000000000001" ry="13.625" fill="rgb(237,175,6)"/><clipPath id="_clipPath_HmbMcjwWs2XzQG2Wrn0sZRSy9rGbmZh1"><ellipse vector-effect="non-scaling-stroke" cx="34.00010830932786" cy="32.8375" rx="15.350000000000001" ry="13.625" fill="rgb(255,255,255)"/></clipPath><g clip-path="url(#_clipPath_HmbMcjwWs2XzQG2Wrn0sZRSy9rGbmZh1)"><g><ellipse vector-effect="non-scaling-stroke" cx="34.587608309327855" cy="32.137499999999996" rx="15.350000000000001" ry="13.625" fill="rgb(250,201,64)"/></g></g><path d=" M 39.769 34.025 C 39.824 34.768 39.695 35.513 39.394 36.194 C 39.038 37.03 38.461 37.754 37.725 38.287 C 37.319 38.595 36.873 38.848 36.4 39.037 C 35.556 39.372 34.651 39.528 33.744 39.494 C 33.357 39.467 32.972 39.411 32.594 39.325 C 32.024 39.177 31.476 38.957 30.963 38.669 C 30.648 38.486 30.349 38.277 30.069 38.044 C 29.673 37.701 29.326 37.306 29.038 36.869 C 28.72 36.378 28.487 35.837 28.35 35.269 C 28.26 34.871 28.222 34.464 28.238 34.056 L 28.238 34.025 L 28.363 33.9 L 28.488 34.025 C 28.497 34.108 28.507 34.192 28.519 34.275 C 28.691 35.48 29.34 36.565 30.319 37.287 C 30.761 37.641 31.257 37.921 31.788 38.119 C 32.507 38.405 33.276 38.55 34.05 38.544 C 34.414 38.546 34.777 38.523 35.138 38.475 C 36.508 38.268 37.752 37.557 38.625 36.481 C 39.163 35.772 39.473 34.915 39.513 34.025 L 39.638 33.9 L 39.763 34.025 L 39.769 34.025 Z " fill="rgb(46,13,25)"/><radialGradient id="_rgradient_2" fx="0.5006082408031762" fy="0.7722725940685651" cx="0.5006082408031762" cy="0.7722725940685651" r="1" gradientTransform="matrix(5.045,0,0,3.261,24.281,28.675)" gradientUnits="userSpaceOnUse"><stop offset="0%" stop-opacity="1" style="stop-color:rgb(29,29,29)"/><stop offset="100%" stop-opacity="1" style="stop-color:rgb(0,0,0)"/></radialGradient><path d=" M 26.763 28.675 C 28.159 28.685 29.295 29.804 29.325 31.2 C 29.356 32.594 28.2 31.581 26.806 31.581 C 25.413 31.581 24.306 32.594 24.281 31.2 C 24.268 30.534 24.524 29.89 24.991 29.415 C 25.458 28.94 26.096 28.673 26.763 28.675 Z " fill-rule="evenodd" fill="url(#_rgradient_2)"/><clipPath id="_clipPath_ph4R6uw7M7gGruvisZcFeljjYrrLz6nN"><path d=" M 26.763 28.675 C 28.159 28.685 29.295 29.804 29.325 31.2 C 29.356 32.594 28.2 31.581 26.806 31.581 C 25.413 31.581 24.306 32.594 24.281 31.2 C 24.268 30.534 24.524 29.89 24.991 29.415 C 25.458 28.94 26.096 28.673 26.763 28.675 Z " fill-rule="evenodd" fill="rgb(255,255,255)"/></clipPath><g clip-path="url(#_clipPath_ph4R6uw7M7gGruvisZcFeljjYrrLz6nN)"><g><path d=" M 26.269 30.069 C 26.597 30.253 26.713 30.669 26.528 30.997 C 26.344 31.325 25.928 31.441 25.6 31.256 C 25.272 31.072 25.156 30.656 25.341 30.328 C 25.525 30 25.941 29.884 26.269 30.069 Z " fill-rule="evenodd" fill="rgb(255,255,255)"/><path d=" M 27.138 29.694 C 27.306 29.787 27.363 29.994 27.275 30.162 C 27.229 30.243 27.153 30.301 27.064 30.325 C 26.975 30.348 26.879 30.335 26.8 30.287 C 26.633 30.192 26.575 29.98 26.669 29.813 C 26.764 29.649 26.974 29.593 27.138 29.687 L 27.138 29.694 Z " fill-rule="evenodd" fill="rgb(255,255,255)"/></g></g><radialGradient id="_rgradient_3" fx="0.5000104823499436" fy="0.7722725940685651" cx="0.5000104823499436" cy="0.7722725940685651" r="1" gradientTransform="matrix(5.051,0,0,3.261,38.575,28.675)" gradientUnits="userSpaceOnUse"><stop offset="0%" stop-opacity="1" style="stop-color:rgb(29,29,29)"/><stop offset="100%" stop-opacity="1" style="stop-color:rgb(0,0,0)"/></radialGradient><path d=" M 41.063 28.675 C 42.459 28.685 43.595 29.804 43.625 31.2 C 43.65 32.594 42.5 31.581 41.106 31.581 C 39.713 31.581 38.606 32.594 38.575 31.2 C 38.562 30.534 38.817 29.89 39.284 29.415 C 39.751 28.94 40.39 28.673 41.056 28.675 L 41.063 28.675 Z " fill-rule="evenodd" fill="url(#_rgradient_3)"/><clipPath id="_clipPath_QMS4eaoJGTj2BzFYdkKw9TuYGiQ3SCkK"><path d=" M 41.063 28.675 C 42.459 28.685 43.595 29.804 43.625 31.2 C 43.65 32.594 42.5 31.581 41.106 31.581 C 39.713 31.581 38.606 32.594 38.575 31.2 C 38.562 30.534 38.817 29.89 39.284 29.415 C 39.751 28.94 40.39 28.673 41.056 28.675 L 41.063 28.675 Z " fill-rule="evenodd" fill="rgb(255,255,255)"/></clipPath><g clip-path="url(#_clipPath_QMS4eaoJGTj2BzFYdkKw9TuYGiQ3SCkK)"><g><path d=" M 40.563 30.069 C 40.894 30.256 41.013 30.675 40.831 31.006 C 40.642 31.339 40.218 31.455 39.884 31.266 C 39.551 31.076 39.435 30.652 39.625 30.319 C 39.806 29.987 40.225 29.875 40.563 30.069 Z " fill-rule="evenodd" fill="rgb(255,255,255)"/><path d=" M 41.438 29.694 C 41.545 29.754 41.612 29.867 41.613 29.99 C 41.614 30.113 41.55 30.227 41.444 30.29 C 41.338 30.353 41.207 30.354 41.1 30.294 C 41.017 30.249 40.956 30.173 40.93 30.082 C 40.904 29.991 40.916 29.894 40.963 29.813 C 41.008 29.732 41.084 29.674 41.174 29.65 C 41.263 29.627 41.358 29.64 41.438 29.688 L 41.438 29.694 Z " fill-rule="evenodd" fill="rgb(255,255,255)"/></g></g><g><path d=" M 45.15 32.325 C 46.463 32.325 47.538 33.013 47.55 33.856 C 47.569 34.7 46.513 35.381 45.2 35.381 C 43.888 35.381 42.813 34.694 42.8 33.856 C 42.781 33.013 43.838 32.325 45.15 32.325 Z " fill-rule="evenodd" fill="rgb(230,85,110)"/><path d=" M 22.8 32.325 C 24.113 32.325 25.188 33.013 25.2 33.856 C 25.219 34.7 24.163 35.381 22.85 35.381 C 21.538 35.381 20.463 34.694 20.45 33.856 C 20.431 33.013 21.488 32.325 22.8 32.325 Z " fill-rule="evenodd" fill="rgb(230,85,110)"/></g><path d=" M 33.919 16.537 C 42.394 16.537 49.313 18.737 49.356 21.444 C 49.406 24.15 42.569 26.35 34.094 26.35 C 25.619 26.35 18.7 24.15 18.656 21.444 C 18.606 18.737 25.45 16.537 33.919 16.537 Z  M 33.938 17.319 C 41.056 17.319 46.863 19.169 46.906 21.444 C 46.944 23.719 41.2 25.569 34.081 25.569 C 26.956 25.569 21.144 23.719 21.106 21.444 C 21.069 19.169 26.819 17.319 33.938 17.319 Z " fill-rule="evenodd" fill="rgb(249,229,35)"/></g><path d=" M 65 16.537 L 65 19.305 L 100.5 19.305 L 100.5 16.537 L 65 16.537 Z  M 65 28.991 L 65 31.759 L 100.5 31.759 L 100.5 28.991 L 65 28.991 Z  M 65 41.445 L 65 44.213 L 100.5 44.213 L 100.5 41.445 L 65 41.445 Z " fill="rgb(0,0,0)"/></g></svg>